<!-- <svg viewBox="0 -2.43 64.06 64.06" xmlns="http://www.w3.org/2000/svg" fill="#000000"><g id="SVGRepo_bgCarrier" stroke-width="0"></g><g id="SVGRepo_tracerCarrier" stroke-linecap="round" stroke-linejoin="round"></g><g id="SVGRepo_iconCarrier"> <g id="Group_129" data-name="Group 129" transform="translate(-436.615 -55.295)"> <g id="XMLID_9_"> <g id="Group_128" data-name="Group 128"> <path id="Path_64" data-name="Path 64" d="M500.675,83.555v22.47a4.229,4.229,0,0,1-4.22,4.23h-3.27a5.055,5.055,0,0,1-4.98,4.25h-39.12a5.055,5.055,0,0,1-4.98-4.25h-3.27a4.229,4.229,0,0,1-4.22-4.23V83.555a4.227,4.227,0,0,1,4.22-4.22h3.19V68.5a1.993,1.993,0,0,1,2-2h6.92l3.49-6.52a8.876,8.876,0,0,1,7.83-4.69h8.76a8.876,8.876,0,0,1,7.83,4.69l3.49,6.52h6.92a1.993,1.993,0,0,1,2,2v10.83h3.19A4.227,4.227,0,0,1,500.675,83.555Zm-4,22.47V92.505h-3.41v13.75h3.19A.224.224,0,0,0,496.675,106.025Zm0-17.52v-4.95a.222.222,0,0,0-.22-.22h-3.19V88.5Zm-7.41,20.93v-4.3a5.955,5.955,0,0,1-2.04.37h-37.16a5.955,5.955,0,0,1-2.04-.37v4.3a1.063,1.063,0,0,0,1.06,1.07H488.2A1.063,1.063,0,0,0,489.265,109.435Zm0-9.98V70.505h-41.24v28.95a2.044,2.044,0,0,0,2.04,2.05h37.16A2.044,2.044,0,0,0,489.265,99.455ZM479.8,66.5l-2.48-4.63a4.873,4.873,0,0,0-4.3-2.58h-8.76a4.873,4.873,0,0,0-4.3,2.58l-2.48,4.63Zm-35.78,39.75V92.5h-3.41v13.52a.224.224,0,0,0,.22.23Zm0-17.75v-5.17h-3.19a.222.222,0,0,0-.22.22V88.5Z" fill="#03373d"></path> <path id="Path_65" data-name="Path 65" d="M496.675,92.5v13.52a.224.224,0,0,1-.22.23h-3.19V92.5Z" fill="#f2f2f2"></path> <path id="Path_66" data-name="Path 66" d="M496.675,83.555V88.5h-3.41v-5.17h3.19A.222.222,0,0,1,496.675,83.555Z" fill="#ef472e"></path> <path id="Path_67" data-name="Path 67" d="M489.265,105.135v4.3a1.063,1.063,0,0,1-1.06,1.07h-39.12a1.063,1.063,0,0,1-1.06-1.07v-4.3a5.955,5.955,0,0,0,2.04.37h37.16A5.956,5.956,0,0,0,489.265,105.135Z" fill="#ef472e"></path> <path id="Path_68" data-name="Path 68" d="M489.265,70.5v28.95a2.044,2.044,0,0,1-2.04,2.05h-37.16a2.044,2.044,0,0,1-2.04-2.05V70.505h41.24ZM480.145,86a11.5,11.5,0,1,0-11.5,11.5A11.514,11.514,0,0,0,480.145,86Z" fill="#ccc"></path> <path id="Path_69" data-name="Path 69" d="M468.645,74.5a11.5,11.5,0,1,1-11.5,11.5A11.514,11.514,0,0,1,468.645,74.5Zm7.5,11.5a7.5,7.5,0,1,0-7.5,7.5A7.5,7.5,0,0,0,476.145,86Z" fill="#03373d"></path> <path id="Path_70" data-name="Path 70" d="M473.985,83.855v4.29H470.8v3.2h-4.3v-3.2H463.3v-4.29h3.19v-3.2h4.3v3.2Z" fill="#ef472e"></path> <path id="Path_71" data-name="Path 71" d="M444.025,99.455v6.8h-3.19a.224.224,0,0,1-.22-.23V92.505h3.41Z" fill="#f2f2f2"></path> <path id="Path_72" data-name="Path 72" d="M444.025,83.335V88.5h-3.41v-4.95a.222.222,0,0,1,.22-.22Z" fill="#ef472e"></path> </g> </g> </g> </g></svg> -->

<!-- <svg viewBox="0 -10.71 64 64" xmlns="http://www.w3.org/2000/svg" fill="#000000"><g id="SVGRepo_bgCarrier" stroke-width="0"></g><g id="SVGRepo_tracerCarrier" stroke-linecap="round" stroke-linejoin="round"></g><g id="SVGRepo_iconCarrier"> <g id="Group_136" data-name="Group 136" transform="translate(-436.645 -192.975)"> <g id="XMLID_3_"> <g id="Group_135" data-name="Group 135"> <path id="Path_95" data-name="Path 95" d="M500.645,218.845v8.09a2.006,2.006,0,0,1-2,2h-5.99a7.118,7.118,0,0,1-14.2,0H457.9a7.118,7.118,0,0,1-14.2,0h-5.06a2.006,2.006,0,0,1-2-2v-31.96a2.006,2.006,0,0,1,2-2h41.97a9.649,9.649,0,0,1,8.79,5.7l4.34,9.7,3.52,3.06A9.785,9.785,0,0,1,500.645,218.845Zm-4,6.09v-6.09a5.8,5.8,0,0,0-2-4.39l-3.29-2.86h-11.86a1.993,1.993,0,0,1-2-2v-12.62h-36.85v27.96h3.95a7.117,7.117,0,0,1,12.42,0h22.33a7.117,7.117,0,0,1,12.42,0h4.88Zm-7.63-17.34-3.26-7.28a5.623,5.623,0,0,0-4.26-3.26V207.6Zm-.33,20.82a3.125,3.125,0,1,0-3.13,3.13A3.133,3.133,0,0,0,488.685,228.415Zm-34.76,0a3.12,3.12,0,1,0-3.12,3.13A3.124,3.124,0,0,0,453.925,228.415Z" fill="#03373d"></path> <path id="Path_96" data-name="Path 96" d="M496.645,220.215v4.72h-4.88a7.14,7.14,0,0,0-6.21-3.64v-1.08Z" fill="#ef472e"></path> <path id="Path_97" data-name="Path 97" d="M496.645,218.845v1.37h-38.3v-.81a10.57,10.57,0,0,0,0-21.14v-1.29h19.15v12.62a1.993,1.993,0,0,0,2,2h11.86l3.29,2.86A5.8,5.8,0,0,1,496.645,218.845Z" fill="#ccc"></path> <path id="Path_98" data-name="Path 98" d="M485.755,200.315l3.26,7.28H481.5v-10.54A5.623,5.623,0,0,1,485.755,200.315Z" fill="#f2f2f2"></path> <path id="Path_99" data-name="Path 99" d="M485.555,225.295a3.125,3.125,0,1,1-3.12,3.12A3.133,3.133,0,0,1,485.555,225.295Z" fill="#f2f2f2"></path> <path id="Path_100" data-name="Path 100" d="M485.555,220.215v1.08a7.14,7.14,0,0,0-6.21,3.64h-22.33a7.14,7.14,0,0,0-6.21-3.64v-1.08h34.75Z" fill="#ef472e"></path> <path id="Path_101" data-name="Path 101" d="M458.345,198.265a10.57,10.57,0,1,1-10.57,10.57A10.58,10.58,0,0,1,458.345,198.265Zm6.57,10.57a6.57,6.57,0,1,0-6.57,6.57A6.575,6.575,0,0,0,464.915,208.835Z" fill="#03373d"></path> <path id="Path_102" data-name="Path 102" d="M463.165,206.9v3.88h-2.88v2.88h-3.87v-2.88h-2.89V206.9h2.89v-2.88h3.87v2.88Z" fill="#ef472e"></path> <path id="Path_103" data-name="Path 103" d="M458.345,219.4v.81h-17.7v-23.24h17.7v1.29a10.57,10.57,0,0,0,0,21.14Z" fill="#ccc"></path> <path id="Path_104" data-name="Path 104" d="M450.8,225.295a3.125,3.125,0,1,1-3.12,3.12A3.124,3.124,0,0,1,450.8,225.295Z" fill="#f2f2f2"></path> <path id="Path_105" data-name="Path 105" d="M450.8,220.215v1.08a7.14,7.14,0,0,0-6.21,3.64h-3.95v-4.72Z" fill="#ef472e"></path> </g> </g> </g> </g></svg> -->

<!-- <svg height="200px" width="200px" version="1.1" id="Layer_1" xmlns="http://www.w3.org/2000/svg" xmlns:xlink="http://www.w3.org/1999/xlink" viewBox="0 0 508 508" xml:space="preserve" fill="#000000"><g id="SVGRepo_bgCarrier" stroke-width="0"></g><g id="SVGRepo_tracerCarrier" stroke-linecap="round" stroke-linejoin="round"></g><g id="SVGRepo_iconCarrier"> <path style="fill:#BF360C;" d="M254,500c135.6,0,246-110.4,246-246S389.6,8,254,8S8,118.4,8,254S118.4,500,254,500z M106,226.8 c0-10,5.6-18.8,15.6-18.8h86.8v-82.8c0-10,4.8-19.6,14.8-19.6H280c10.4,0,18.8,9.6,18.8,19.6V208h82.8c10.4,0,19.6,8.8,19.6,18.8 V284c0,10-9.2,14.4-19.6,14.4h-82.8v86.8c0,10-8.8,15.6-18.8,15.6h-56.8c-10,0-14.8-5.2-14.8-15.6v-86.8h-86.8 c-10,0-15.6-4.4-15.6-14.4V226.8z"></path> <path style="fill:#EEEEEE;" d="M122,290h88.8c2,0,7.2,5.6,7.2,7.6V386c0,6,1.2,8,7.2,8h57.6c6,0,11.2-2,11.2-8v-88.4 c0-2,2-7.6,4-7.6h88c6,0,12-1.2,12-6.8v-58.4c0-5.6-6-11.2-12-11.2h-88c-2,0-4-1.6-4-3.6v-88c0-5.6-5.2-12-11.2-12h-57.6 c-6,0-7.2,5.6-7.2,12v88.4c0,2-5.2,3.6-7.2,3.6H122c-6,0-8,4.8-8,11.2v58.4C114,289.2,116,290,122,290z"></path> <path d="M254,508C114,508,0,394,0,254S114,0,254,0s254,114,254,254S394,508,254,508z M254,8C118.4,8,8,118.4,8,254 s110.4,246,246,246s246-110.4,246-246S389.6,8,254,8z"></path> <path d="M282.8,404h-57.6c-10,0-17.2-7.2-17.2-18v-86h-86c-10.8,0-18-6.8-18-16.8v-58.4c0-10,7.2-17.2,18-17.2h86V122 c0-10.4,7.2-18,17.2-18h57.6c10,0,17.2,7.2,17.2,18v86h86c10.4,0,18,6.8,18,17.2v58.4c0,10-7.2,16.8-18,16.8h-86V386 C300,396.8,292.8,404,282.8,404z M122,216c-6,0-10,3.2-10,9.2v58.4c0,8,6.8,8.8,10,8.8h90c2.4,0,4,1.6,4,4V386c0,6,3.2,10,9.2,10 h57.6c5.6,0,9.2-3.6,9.2-10v-90c0-2.4,1.6-4,4-4h90c2.8,0,10-0.8,10-8.8v-58.4c0-5.6-3.6-9.2-10-9.2h-90c-2.4,0-4-1.6-4-4V122 c0-6-3.6-10-9.2-10h-57.6c-5.6,0-9.2,3.6-9.2,10v90c0,2.4-1.6,4-4,4H122z"></path> </g></svg> -->

<svg height="200px" width="200px" version="1.1" id="Capa_1" xmlns="http://www.w3.org/2000/svg" xmlns:xlink="http://www.w3.org/1999/xlink" viewBox="0 0 417.074 417.074" xml:space="preserve" fill="#000000"><g id="SVGRepo_bgCarrier" stroke-width="0"></g><g id="SVGRepo_tracerCarrier" stroke-linecap="round" stroke-linejoin="round"></g><g id="SVGRepo_iconCarrier"> <g> <g id="Guides_For_Artboard_20_"> </g> <g id="Artwork_19_"> </g> <g id="Layer_2_19_"> <g> <path style="fill:#E74424;" d="M165.401,139.394c0.869-2.422,3.305-3.914,5.858-3.58c2.552,0.332,4.527,2.397,4.746,4.961 l8.747,102.192l16.379-59.038c0.67-2.414,2.882-4.072,5.396-4.009c2.503,0.055,4.65,1.803,5.213,4.243l9.121,39.569 l15.573-65.431c0.608-2.56,2.957-4.313,5.582-4.201c2.628,0.125,4.797,2.103,5.163,4.708l11.622,82.857l5.21-16.84 c0.71-2.292,2.83-3.854,5.229-3.854h123.254v-28.214c0-26.045-21.116-47.166-47.176-47.166h-74.883V70.706 c0-26.057-21.115-47.17-47.17-47.17H196.02h-4.298c-26.049,0-47.176,21.114-47.176,47.17v74.884H69.659 c-26.036,0-47.162,21.121-47.162,47.166v28.816h113.416L165.401,139.394z"></path> <path style="fill:#E74424;" d="M262.013,268.313c-0.759,2.448-3.12,4.046-5.668,3.838c-2.556-0.208-4.626-2.157-4.981-4.697 l-10.997-78.4L226.1,248.999c-0.587,2.466-2.791,4.207-5.324,4.207c-0.006,0-0.013,0-0.02,0c-2.542-0.01-4.743-1.767-5.314-4.245 l-9.525-41.325l-18.748,67.576c-0.664,2.387-2.836,4.009-5.271,4.009c-0.169,0-0.339-0.008-0.51-0.022 c-2.639-0.246-4.722-2.344-4.947-4.984l-9.203-107.526l-22.319,62.207c-0.78,2.176-2.841,3.625-5.152,3.625H23.226 c3.89,22.131,23.2,38.951,46.435,38.951h74.887v74.886c0,26.057,21.127,47.18,47.176,47.18h4.298h27.245 c26.055,0,47.17-21.124,47.17-47.18v-74.886h74.883c23.467,0,42.916-17.125,46.556-39.553h-118.6L262.013,268.313z"></path> <path style="fill:#F7F1E6;" d="M411.603,220.971h-19.108H269.241c-2.399,0-4.52,1.563-5.229,3.854l-5.21,16.84l-11.622-82.857 c-0.366-2.605-2.535-4.583-5.163-4.708c-2.625-0.112-4.974,1.641-5.582,4.201l-15.573,65.431l-9.121-39.569 c-0.563-2.44-2.71-4.188-5.213-4.243c-2.514-0.063-4.726,1.596-5.396,4.009l-16.379,59.038l-8.747-102.192 c-0.219-2.564-2.194-4.63-4.746-4.961c-2.554-0.334-4.989,1.158-5.858,3.58l-29.486,82.179H22.499H5.474 c-3.023,0-5.474,2.451-5.474,5.475c0,3.022,2.45,5.473,5.474,5.473h17.752h116.539c2.312,0,4.372-1.449,5.152-3.625 l22.319-62.207l9.203,107.526c0.226,2.64,2.309,4.738,4.947,4.984c0.171,0.014,0.341,0.022,0.51,0.022 c2.436,0,4.607-1.622,5.271-4.009l18.748-67.577l9.525,41.325c0.571,2.479,2.772,4.235,5.314,4.245c0.007,0,0.014,0,0.02,0 c2.533,0,4.737-1.74,5.324-4.207l14.267-59.944l10.997,78.4c0.355,2.54,2.426,4.49,4.981,4.697 c2.548,0.208,4.909-1.39,5.668-3.838l11.263-36.396h118.599h19.729c3.022,0,5.472-2.45,5.472-5.473 C417.075,223.421,414.626,220.971,411.603,220.971z"></path> </g> </g> </g> </g></svg>